HIERARCHY
ROOT root
{
	OFFSET	0	13.1	24.9
	CHANNELS 6  Xposition Yposition Zposition Xrotation Yrotation Zrotation
	JOINT spine_1
	{
		OFFSET	0	9.99999	0
		CHANNELS 3  Xrotation Yrotation Zrotation
		JOINT spine_2
		{
			OFFSET	0	112	-10
			CHANNELS 3  Xrotation Yrotation Zrotation
			JOINT spine_3
			{
				OFFSET	0	206.5	19.3
				CHANNELS 3  Xrotation Yrotation Zrotation
				JOINT spine_4
				{
					OFFSET	0	110.4	14.6
					CHANNELS 3  Xrotation Yrotation Zrotation
					JOINT neck_1
					{
						OFFSET	0	71.8	-50.3
						CHANNELS 3  Xrotation Yrotation Zrotation
						JOINT neck_2
						{
							OFFSET	0	86.2	-25.8
							CHANNELS 3  Xrotation Yrotation Zrotation
							JOINT head_ee
							{
								OFFSET	0	179.8	-8.7
								CHANNELS 3  Xrotation Yrotation Zrotation
								End Site
								{
									OFFSET	1	0	0
								}
							}
						}
					}
					JOINT left_clavicle
					{
						OFFSET	-43.2	22.4	-70.8
						CHANNELS 3  Xrotation Yrotation Zrotation
						JOINT left_shoulder
						{
							OFFSET	-93.9	-5.79999	48.7
							CHANNELS 3  Xrotation Yrotation Zrotation
							JOINT left_elbow
							{
								OFFSET	-291.4	-30.8	15.2
								CHANNELS 3  Xrotation Yrotation Zrotation
								JOINT left_lowarm_twist
								{
									OFFSET	-110.7	-3.89999	13.6
									CHANNELS 3  Xrotation Yrotation Zrotation
									JOINT left_hand
									{
										OFFSET	-110.7	-3.89999	13.6
										CHANNELS 3  Xrotation Yrotation Zrotation
										JOINT left_ee
										{
											OFFSET	-80.8	-5.10001	12.1
											CHANNELS 3  Xrotation Yrotation Zrotation
											End Site
											{
												OFFSET	1	0	0
											}
										}
									}
								}
							}
						}
					}
					JOINT right_clavicle
					{
						OFFSET	43.2	22.4	-70.8
						CHANNELS 3  Xrotation Yrotation Zrotation
						JOINT right_shoulder
						{
							OFFSET	93.9	-5.79999	48.7
							CHANNELS 3  Xrotation Yrotation Zrotation
							JOINT right_elbow
							{
								OFFSET	291.4	-30.8	15.2
								CHANNELS 3  Xrotation Yrotation Zrotation
								JOINT right_lowarm_twist
								{
									OFFSET	110.7	-3.89999	13.6
									CHANNELS 3  Xrotation Yrotation Zrotation
									JOINT right_hand
									{
										OFFSET	110.7	-3.89999	13.6
										CHANNELS 3  Xrotation Yrotation Zrotation
										JOINT right_ee
										{
											OFFSET	80.8	-5.10001	12.1
											CHANNELS 3  Xrotation Yrotation Zrotation
											End Site
											{
												OFFSET	1	0	0
											}
										}
									}
								}
							}
						}
					}
				}
			}
		}
	}
	JOINT left_hip
	{
		OFFSET	-82.8	-127.5	0.300001
		CHANNELS 3  Xrotation Yrotation Zrotation
		JOINT left_knee
		{
			OFFSET	-28.2	-396.7	2.2
			CHANNELS 3  Xrotation Yrotation Zrotation
			JOINT left_ankle
			{
				OFFSET	-11.7	-411.3	35.4
				CHANNELS 3  Xrotation Yrotation Zrotation
				JOINT left_toes
				{
					OFFSET	0	-60	-88.6
					CHANNELS 3  Xrotation Yrotation Zrotation
					JOINT left_foot_ee
					{
						OFFSET	-22.5	-16.5	-42.2
						CHANNELS 3  Xrotation Yrotation Zrotation
						End Site
						{
							OFFSET	1	0	0
						}
					}
				}
			}
		}
	}
	JOINT right_hip
	{
		OFFSET	82.8	-127.5	0.300001
		CHANNELS 3  Xrotation Yrotation Zrotation
		JOINT right_knee
		{
			OFFSET	28.2	-396.7	2.2
			CHANNELS 3  Xrotation Yrotation Zrotation
			JOINT right_ankle
			{
				OFFSET	11.7	-411.3	35.4
				CHANNELS 3  Xrotation Yrotation Zrotation
				JOINT right_toes
				{
					OFFSET	0	-60	-88.6
					CHANNELS 3  Xrotation Yrotation Zrotation
					JOINT right_foot_ee
					{
						OFFSET	22.5	-16.5	-42.2
						CHANNELS 3  Xrotation Yrotation Zrotation
						End Site
						{
							OFFSET	1	0	0
						}
					}
				}
			}
		}
	}
}
MOTION
Frames: 15
Frame Time: 0.02
2136.72 693.233 -635.917 -165.26 -75.8663 -166.16 1.13691 0.503292 1.05714 1.13743 0.435007 1.08702 1.14594 0.219927 1.14999 1.14432 0.398774 1.10083 -11.4262 11.0569 0.771522 -11.6306 20.433 3.81155 -0.0 0.0 -0.0 -1.11752 22.1873 1.00442 -30.7007 -22.3126 70.7314 0.264554 -7.46637 0.0172618 -1.88838 -0.0703518 0.230868 1.84559 16.2424 18.2932 -0.0 0.0 -0.0 9.78568 18.5684 -19.0225 9.15888 25.7046 -53.2525 2.2476 48.0647 -1.00232 -16.7979 0.884538 -1.94962 -2.85635 -8.96108 14.8595 0.0 0.0 0.0 36.7376 11.2753 -5.69899 -5.59632 0.189628 0.837596 -9.40159 18.5532 1.42154 -7.32578 0.0 0.0 -0.0 0.0 -0.0 -13.7888 13.9522 5.56329 -16.1562 -0.321603 -2.45028 26.2417 8.87135 3.602 6.48365 -0.0 -0.0 0.0 0.0 0.0 
2165.85 687.451 -641.103 -168.051 -75.0775 -168.389 1.16407 0.665726 1.00712 1.16443 0.600295 1.04743 1.17569 0.390355 1.1424 1.17431 0.565867 1.06643 -10.71 11.532 1.33024 -10.8867 20.9012 4.34874 -0.0 0.0 -0.0 -1.19631 22.0028 0.866949 -31.0485 -22.3574 70.6386 0.273944 -7.72821 0.0185033 -1.14117 -0.0416034 0.13979 2.09993 16.2536 19.9652 -0.0 0.0 -0.0 9.99207 18.3313 -19.4985 8.56395 24.9819 -53.1269 2.35057 49.3365 -1.07968 -17.2607 0.916832 -1.99929 -2.91099 -6.54279 16.4959 0.0 0.0 0.0 36.4928 11.5104 -5.49567 -7.6448 0.238447 1.14815 -10.4467 18.6386 1.58212 -6.6427 0.0 0.0 -0.0 0.0 -0.0 -15.2079 14.3236 5.84519 -15.7531 -0.322035 -2.38843 24.2929 8.60668 3.36763 5.79209 -0.0 -0.0 0.0 0.0 0.0 
2199.57 694.505 -643.464 -166.648 -75.6747 -167.217 1.20027 0.459672 0.968849 1.2007 0.397093 0.996132 1.20781 0.201153 1.05332 1.20645 0.364973 1.00834 -9.84707 11.8773 1.48538 -9.98761 21.3591 4.42893 -0.0 0.0 -0.0 -1.28798 21.785 0.705437 -31.5783 -22.681 70.3509 0.347841 -9.77684 0.0297498 -0.617288 -0.0221585 0.0757178 2.43256 16.3132 22.197 -0.0 0.0 -0.0 9.99841 18.8063 -19.4821 6.45755 24.5167 -53.1928 2.40235 49.9523 -1.11915 -18.4081 0.998633 -2.12133 -2.77574 -3.11971 17.3239 0.0 0.0 0.0 34.2462 11.9815 -4.74569 -9.05594 0.265602 1.36298 -11.3809 18.849 1.72668 -5.88267 0.0 0.0 -0.0 0.0 -0.0 -16.1426 14.6128 6.04593 -15.4736 -0.322079 -2.34556 20.5844 5.5572 2.87209 5.52731 -0.0 -0.0 0.0 0.0 0.0 
2224.74 698.768 -649.058 -166.043 -76.2552 -166.843 1.24218 0.338683 1.065 1.24277 0.270232 1.08439 1.24807 0.0606288 1.1159 1.24641 0.236093 1.09233 -9.48658 12.2588 1.5641 -9.61665 21.9841 4.53486 -0.0 0.0 -0.0 -1.34093 21.4905 0.586432 -31.9745 -22.9497 69.7114 0.435758 -12.1813 0.0464972 0.171527 0.00601224 -0.0210812 2.68646 16.6026 23.9976 -0.0 0.0 -0.0 9.86187 19.2133 -19.1496 4.88471 24.5914 -53.1119 2.44797 50.4819 -1.1542 -19.414 1.07235 -2.22696 -2.54043 -0.255947 17.1056 0.0 0.0 0.0 33.2819 12.1524 -4.57696 -10.5313 0.288325 1.58822 -12.0695 19.4175 1.83593 -5.33323 0.0 0.0 -0.0 0.0 -0.0 -17.2679 14.8152 6.52304 -16.0462 -0.321765 -2.43341 15.9087 2.35034 2.24395 5.28312 -0.0 -0.0 0.0 0.0 0.0 
2248.26 699.431 -653.591 -168.649 -76.8501 -169.044 1.23376 0.26872 1.31018 1.2347 0.184813 1.32462 1.23918 -0.0688449 1.33567 1.23672 0.142945 1.32979 -9.68455 12.6007 1.93781 -9.82828 22.3997 5.02395 -0.0 0.0 -0.0 -1.25951 21.4829 0.701452 -32.0475 -23.0401 68.2369 0.49963 -13.9016 0.060912 0.724641 0.0249678 -0.0891799 2.85361 16.7973 25.1959 -0.0 0.0 -0.0 9.57526 19.7767 -18.4705 3.10391 24.5027 -53.1298 2.45752 50.5913 -1.16158 -20.1148 1.12481 -2.29979 -2.32156 1.74049 16.5338 0.0 0.0 0.0 32.94 11.7078 -5.01957 -11.5081 0.300175 1.73763 -12.5231 19.0874 1.90382 -4.94248 0.0 0.0 -0.0 0.0 -0.0 -18.7488 15.012 8.32741 -18.6627 -0.309155 -2.83462 11.7479 0.0757706 1.67517 4.97941 -0.0 -0.0 0.0 0.0 0.0 
2269.4 697.17 -659.554 -173.166 -77.0974 -173.891 1.15645 0.371378 1.42043 1.15753 0.28025 1.44117 1.16489 0.000969186 1.46816 1.16196 0.232801 1.44959 -10.1591 12.6242 2.02194 -10.3292 22.446 5.20606 -0.0 0.0 -0.0 -0.963281 21.472 1.1224 -31.9882 -23.1954 67.3374 0.591928 -16.3425 0.084996 1.12875 0.0384011 -0.139046 2.97628 16.8952 26.0696 -0.0 0.0 -0.0 9.60098 20.1219 -18.5026 1.65586 24.4057 -53.403 2.38153 49.7065 -1.10323 -21.1121 1.20099 -2.40233 -2.04644 3.16271 15.2774 0.0 0.0 0.0 31.4319 11.554 -4.79879 -12.9928 0.313304 1.96505 -12.7999 18.7589 1.94446 -4.64917 0.0 0.0 -0.0 0.0 -0.0 -19.4379 15.392 7.8237 -20.4577 -0.289916 -3.10936 7.64861 -1.5706 1.10272 4.32796 -0.0 -0.0 0.0 0.0 0.0 
2295.93 700.463 -668.653 -176.751 -78.6344 -177.52 0.947718 0.0695161 1.57842 0.949104 -0.0310513 1.57965 0.948515 -0.336941 1.54362 0.9452 -0.0889586 1.57745 -11.6074 12.4865 0.543252 -11.8911 23.3078 4.05272 -0.0 0.0 -0.0 -0.341969 21.0179 1.95343 -32.1581 -23.7177 65.9541 0.644904 -17.717 0.100512 2.23999 0.0735201 -0.276636 3.21418 17.1012 27.7868 -0.0 0.0 -0.0 9.35321 20.2478 -17.9413 0.160439 24.172 -53.1659 2.3304 49.0924 -1.06441 -21.8114 1.25547 -2.47343 -1.73814 4.31406 13.6607 0.0 0.0 0.0 28.1036 9.55496 -2.23129 -13.7109 0.317538 2.07514 -9.20694 16.2839 1.38328 -3.56646 0.0 0.0 -0.0 0.0 -0.0 -17.5095 16.3595 6.57294 -22.3248 -0.260781 -3.39436 2.1745 -2.7902 0.317981 3.0954 -0.0 -0.0 0.0 0.0 0.0 
2325.6 709.816 -668.456 -179.993 -81.8646 179.102 0.797942 0.0627959 1.64511 0.799447 -0.0419993 1.64577 0.798579 -0.364724 1.60541 0.794999 -0.106639 1.64285 -13.0342 11.4508 -0.142744 -13.361 21.8788 3.37681 -0.0 0.0 -0.0 1.08402 19.2585 3.86211 -32.9503 -25.3562 62.0049 0.602099 -16.608 0.0878804 3.15984 0.100566 -0.391019 3.48318 17.1767 29.7212 -0.0 0.0 -0.0 9.11976 18.7567 -17.5296 -2.86656 23.8615 -53.8037 2.28498 48.5339 -1.03023 -23.2821 1.37288 -2.62081 -1.86047 5.03951 14.8395 0.0 0.0 0.0 25.3445 7.81205 -0.586368 -14.5987 0.320865 2.21131 -2.88476 10.9805 0.425271 -3.36882 0.0 0.0 -0.0 0.0 -0.0 -14.7154 18.3215 6.13351 -33.3728 0.0998277 -5.04893 4.95201 -4.05967 0.71713 3.11004 -0.0 -0.0 0.0 0.0 0.0 
2346.75 715.33 -672.926 175.363 -83.6083 174.372 0.704669 0.0529487 1.67473 0.706228 -0.0537108 1.6747 0.705038 -0.384567 1.63085 0.701347 -0.122216 1.6711 -13.9886 10.7202 -0.720606 -14.332 20.8899 2.77788 -0.0 0.0 -0.0 2.07029 17.8542 5.25334 -33.6957 -26.4378 58.7923 0.572534 -15.8344 0.0796215 3.7965 0.118208 -0.470431 3.66106 17.2681 31.0338 -0.0 0.0 -0.0 8.91393 17.7079 -17.143 -5.12919 23.6513 -54.098 2.25201 48.1206 -1.00561 -24.3683 1.462 -2.72771 -1.93669 5.54704 15.6019 0.0 0.0 0.0 23.416 6.57005 0.563338 -15.2343 0.321951 2.30883 1.36487 7.27623 -0.199106 -3.2089 0.0 0.0 -0.0 0.0 -0.0 -12.7327 19.6914 5.78621 -41.0665 0.53601 -6.14693 6.84525 -4.94016 0.984598 3.08982 -0.0 -0.0 0.0 0.0 0.0 
2361.98 723.026 -674.898 176.822 -84.157 175.855 0.77593 0.111789 1.68017 0.777501 0.00466379 1.68388 0.778033 -0.327042 1.65183 0.774231 -0.0621004 1.68274 -14.3027 10.5757 -0.501899 -14.6485 20.4952 2.99453 -0.0 0.0 -0.0 3.1525 16.586 6.87604 -33.0252 -27.6536 56.5508 0.603637 -16.6481 0.0883204 4.61634 0.139622 -0.572968 3.56024 17.1684 30.2753 -0.0 0.0 -0.0 8.80478 17.0587 -16.9424 -7.4123 23.4718 -54.6325 2.18542 47.2649 -0.956354 -25.3358 1.54309 -2.82151 -1.86903 5.91095 15.293 0.0 0.0 0.0 22.045 5.67075 1.32836 -15.6934 0.322062 2.37927 4.8391 5.62323 -0.699896 -2.95459 0.0 0.0 -0.0 0.0 -0.0 -9.53611 21.8369 5.54652 -43.644 0.714723 -6.50072 7.01733 -6.53539 1.00765 1.52171 -0.0 -0.0 0.0 0.0 0.0 
2376.92 722.271 -679.303 -179.571 -84.0136 179.168 0.896199 0.146035 1.68548 0.897779 0.0385036 1.69135 0.899289 -0.291796 1.66644 0.895414 -0.02499 1.69161 -14.7152 10.453 -0.328256 -15.0697 20.1745 3.19284 -0.0 0.0 -0.0 3.91789 15.5295 8.06844 -32.6196 -28.551 54.6815 0.626718 -17.2475 0.0950488 5.18405 0.15359 -0.644143 3.48504 17.0948 29.7136 -0.0 0.0 -0.0 8.6312 16.776 -16.5774 -8.64001 23.4207 -54.8957 2.14841 46.7771 -0.92928 -26.0548 1.60438 -2.89032 -1.81653 6.13791 15.0282 0.0 0.0 0.0 21.1311 5.05005 1.79399 -15.9993 0.321823 2.42621 7.16467 4.52765 -1.02993 -2.8121 0.0 0.0 -0.0 0.0 -0.0 -7.58675 23.2708 5.91192 -45.449 0.849307 -6.74362 7.13959 -7.65342 1.02448 0.42507 -0.0 -0.0 0.0 0.0 0.0 
2396.19 731.971 -683.578 175.166 -83.2683 173.459 0.803677 0.160709 1.68818 0.80526 0.0529755 1.69498 0.807249 -0.280991 1.67237 0.803346 -0.0133839 1.69576 -14.9992 10.2938 -0.211674 -15.3536 19.8129 3.2983 -0.0 0.0 -0.0 4.4641 14.6658 8.94643 -31.9419 -29.3298 53.2249 0.676915 -18.5376 0.110472 5.60015 0.163379 -0.696395 3.35 17.1434 28.7595 -0.0 0.0 -0.0 8.51321 16.5772 -16.3301 -10.5024 23.236 -55.3609 2.08334 45.8973 -0.882201 -26.8953 1.67712 -2.96979 -1.72026 6.18752 14.3791 0.0 0.0 0.0 20.0207 4.6549 2.26319 -16.849 0.319844 2.55656 8.72516 5.09803 -1.24713 -2.94693 0.0 0.0 -0.0 0.0 -0.0 -5.46502 24.3011 5.93723 -46.5251 0.933179 -6.88641 7.2232 -8.46134 1.0362 -0.357141 0.0 0.0 0.0 0.0 0.0 
2412.0 735.68 -688.246 175.978 -82.3044 174.136 0.881931 0.131041 1.64124 0.883429 0.0263532 1.64625 0.884539 -0.295344 1.61976 0.880879 -0.0358617 1.64607 -15.1898 10.1819 -0.132673 -15.5433 19.5604 3.36696 -0.0 0.0 -0.0 4.84643 13.8218 9.57721 -31.2038 -29.9099 51.5974 0.71357 -19.4676 0.122408 5.8906 0.169987 -0.732909 3.24153 17.1352 27.9886 -0.0 0.0 -0.0 8.23028 16.472 -15.7164 -12.0629 23.0736 -55.5732 2.03254 45.1906 -0.845943 -27.4946 1.72969 -3.02581 -1.64735 6.20364 13.8791 0.0 0.0 0.0 18.7224 4.48748 2.91563 -17.4962 0.31704 2.65581 9.76072 5.56377 -1.3897 -3.05766 0.0 0.0 -0.0 0.0 -0.0 -3.3722 25.0286 5.6202 -47.2798 0.993599 -6.98561 7.22213 -9.0768 1.03619 -0.926398 0.0 0.0 0.0 0.0 0.0 
2426.62 741.028 -694.448 174.826 -82.3187 172.552 0.877705 0.0395559 1.57756 0.879088 -0.0608955 1.57688 0.877684 -0.367588 1.53465 0.874417 -0.120637 1.57343 -16.425 10.1406 0.739062 -16.8087 19.0345 4.38776 -0.0 0.0 -0.0 5.20897 13.491 10.1844 -29.6129 -30.7973 50.4251 0.836022 -22.4963 0.16627 5.79685 0.167874 -0.721119 2.83544 17.7229 25.3262 -0.0 0.0 -0.0 8.18239 15.9465 -15.6427 -14.2 22.821 -56.0587 1.93154 43.7315 -0.775194 -28.1501 1.78787 -3.08645 -1.7428 4.74723 13.8887 0.0 0.0 0.0 16.3774 4.41525 3.74858 -16.4946 0.320904 2.5022 7.9082 7.60762 -1.13199 -3.60651 0.0 0.0 -0.0 0.0 -0.0 1.08905 24.822 4.70428 -49.177 1.15125 -7.23146 6.61382 -10.5843 0.951462 -1.90516 0.0 0.0 0.0 0.0 0.0 
2435.11 750.976 -698.65 177.397 -83.7695 175.563 1.02466 -0.0956997 1.46731 1.02584 -0.188865 1.45825 1.02115 -0.466469 1.3945 1.01852 -0.240405 1.45065 -17.2875 10.1125 1.34881 -17.6871 18.6843 5.09609 -0.0 0.0 -0.0 5.49826 12.8527 10.6811 -28.0618 -32.5598 48.9369 0.952215 -25.2528 0.213311 5.19913 0.153951 -0.646036 2.36452 18.6555 22.4208 -0.0 0.0 -0.0 7.81808 14.651 -14.9221 -15.6016 22.5363 -57.385 1.86402 42.7145 -0.72895 -28.6088 1.82899 -3.12849 -1.84029 3.71745 14.0983 0.0 0.0 0.0 14.6097 4.16388 4.41257 -12.4938 0.309549 1.88859 6.52837 10.3423 -0.939249 -5.28572 0.0 0.0 -0.0 0.0 -0.0 6.42428 24.6899 3.80713 -54.2926 1.61622 -7.8674 6.20507 -12.7357 0.895842 -2.58997 0.0 0.0 0.0 0.0 0.0 
